<svg width="100%" viewBox="0 0 800.00001 800.00001" xmlns="http://www.w3.org/2000/svg" style="vertical-align: middle; max-width: 100%; width: 100%;"><g transform="translate(0 -252.36)">
  <path d="m87.776 340.14a299.7 299.7 0 0 0 0 423.83 299.7 299.7 0 0 0 370.47 42.01l246.39 246.39 95.361-95.358-246.39-246.39a299.7 299.7 0 0 0 -42.01 -370.48 299.7 299.7 0 0 0 -423.83 0zm70.651 70.652a199.8 199.8 0 0 1 282.52 0 199.8 199.8 0 0 1 0 282.52 199.8 199.8 0 0 1 -282.52 0 199.8 199.8 0 0 1 0 -282.52z" fill="rgb(255,255,254)" style="isolation:auto;mix-blend-mode:normal"></path>
 </g></svg>